<?xml version="1.0" encoding="utf-8" standalone="no"?>
<!DOCTYPE svg PUBLIC "-//W3C//DTD SVG 1.1//EN" "http://www.w3.org/Graphics/SVG/1.1/DTD/svg11.dtd">
<svg width="600" height="400" version="1.1" xmlns:xlink="http://www.w3.org/1999/xlink" xmlns="http://www.w3.org/2000/svg">
  <defs>
    <clipPath id="clipPath1">
      <rect x="0" y="0" width="600" height="400" />
    </clipPath>
  </defs>
  <g clip-path="url(#clipPath1)">
    <polyline points="86.8771,356.894 86.8771,360.894" style="fill:none;stroke:black;stroke-width:1" shape-rendering="crispEdges" />
    <polyline points="102.932,356.894 102.932,360.894" style="fill:none;stroke:black;stroke-width:1" shape-rendering="crispEdges" />
    <polyline points="118.9869,356.894 118.9869,360.894" style="fill:none;stroke:black;stroke-width:1" shape-rendering="crispEdges" />
    <polyline points="151.0968,356.894 151.0968,360.894" style="fill:none;stroke:black;stroke-width:1" shape-rendering="crispEdges" />
    <polyline points="167.1517,356.894 167.1517,360.894" style="fill:none;stroke:black;stroke-width:1" shape-rendering="crispEdges" />
    <polyline points="183.2066,356.894 183.2066,360.894" style="fill:none;stroke:black;stroke-width:1" shape-rendering="crispEdges" />
    <polyline points="215.3165,356.894 215.3165,360.894" style="fill:none;stroke:black;stroke-width:1" shape-rendering="crispEdges" />
    <polyline points="231.3714,356.894 231.3714,360.894" style="fill:none;stroke:black;stroke-width:1" shape-rendering="crispEdges" />
    <polyline points="247.4263,356.894 247.4263,360.894" style="fill:none;stroke:black;stroke-width:1" shape-rendering="crispEdges" />
    <polyline points="279.5362,356.894 279.5362,360.894" style="fill:none;stroke:black;stroke-width:1" shape-rendering="crispEdges" />
    <polyline points="295.5911,356.894 295.5911,360.894" style="fill:none;stroke:black;stroke-width:1" shape-rendering="crispEdges" />
    <polyline points="311.646,356.894 311.646,360.894" style="fill:none;stroke:black;stroke-width:1" shape-rendering="crispEdges" />
    <polyline points="343.7559,356.894 343.7559,360.894" style="fill:none;stroke:black;stroke-width:1" shape-rendering="crispEdges" />
    <polyline points="359.8108,356.894 359.8108,360.894" style="fill:none;stroke:black;stroke-width:1" shape-rendering="crispEdges" />
    <polyline points="375.8658,356.894 375.8658,360.894" style="fill:none;stroke:black;stroke-width:1" shape-rendering="crispEdges" />
    <polyline points="407.9756,356.894 407.9756,360.894" style="fill:none;stroke:black;stroke-width:1" shape-rendering="crispEdges" />
    <polyline points="424.0305,356.894 424.0305,360.894" style="fill:none;stroke:black;stroke-width:1" shape-rendering="crispEdges" />
    <polyline points="440.0855,356.894 440.0855,360.894" style="fill:none;stroke:black;stroke-width:1" shape-rendering="crispEdges" />
    <polyline points="472.1953,356.894 472.1953,360.894" style="fill:none;stroke:black;stroke-width:1" shape-rendering="crispEdges" />
    <polyline points="488.2502,356.894 488.2502,360.894" style="fill:none;stroke:black;stroke-width:1" shape-rendering="crispEdges" />
    <polyline points="504.3052,356.894 504.3052,360.894" style="fill:none;stroke:black;stroke-width:1" shape-rendering="crispEdges" />
    <polyline points="536.415,356.894 536.415,360.894" style="fill:none;stroke:black;stroke-width:1" shape-rendering="crispEdges" />
    <polyline points="552.47,356.894 552.47,360.894" style="fill:none;stroke:black;stroke-width:1" shape-rendering="crispEdges" />
    <polyline points="568.5249,356.894 568.5249,360.894" style="fill:none;stroke:black;stroke-width:1" shape-rendering="crispEdges" />
    <polyline points="65.813,343.3381 61.813,343.3381" style="fill:none;stroke:black;stroke-width:1" shape-rendering="crispEdges" />
    <polyline points="65.813,330.9182 61.813,330.9182" style="fill:none;stroke:black;stroke-width:1" shape-rendering="crispEdges" />
    <polyline points="65.813,318.4983 61.813,318.4983" style="fill:none;stroke:black;stroke-width:1" shape-rendering="crispEdges" />
    <polyline points="65.813,306.0784 61.813,306.0784" style="fill:none;stroke:black;stroke-width:1" shape-rendering="crispEdges" />
    <polyline points="65.813,281.2386 61.813,281.2386" style="fill:none;stroke:black;stroke-width:1" shape-rendering="crispEdges" />
    <polyline points="65.813,268.8188 61.813,268.8188" style="fill:none;stroke:black;stroke-width:1" shape-rendering="crispEdges" />
    <polyline points="65.813,256.3989 61.813,256.3989" style="fill:none;stroke:black;stroke-width:1" shape-rendering="crispEdges" />
    <polyline points="65.813,243.979 61.813,243.979" style="fill:none;stroke:black;stroke-width:1" shape-rendering="crispEdges" />
    <polyline points="65.813,219.1392 61.813,219.1392" style="fill:none;stroke:black;stroke-width:1" shape-rendering="crispEdges" />
    <polyline points="65.813,206.7193 61.813,206.7193" style="fill:none;stroke:black;stroke-width:1" shape-rendering="crispEdges" />
    <polyline points="65.813,194.2994 61.813,194.2994" style="fill:none;stroke:black;stroke-width:1" shape-rendering="crispEdges" />
    <polyline points="65.813,181.8795 61.813,181.8795" style="fill:none;stroke:black;stroke-width:1" shape-rendering="crispEdges" />
    <polyline points="65.813,157.0397 61.813,157.0397" style="fill:none;stroke:black;stroke-width:1" shape-rendering="crispEdges" />
    <polyline points="65.813,144.6198 61.813,144.6198" style="fill:none;stroke:black;stroke-width:1" shape-rendering="crispEdges" />
    <polyline points="65.813,132.2 61.813,132.2" style="fill:none;stroke:black;stroke-width:1" shape-rendering="crispEdges" />
    <polyline points="65.813,119.7801 61.813,119.7801" style="fill:none;stroke:black;stroke-width:1" shape-rendering="crispEdges" />
    <polyline points="65.813,94.9403 61.813,94.9403" style="fill:none;stroke:black;stroke-width:1" shape-rendering="crispEdges" />
    <polyline points="65.813,82.5204 61.813,82.5204" style="fill:none;stroke:black;stroke-width:1" shape-rendering="crispEdges" />
    <polyline points="65.813,70.1005 61.813,70.1005" style="fill:none;stroke:black;stroke-width:1" shape-rendering="crispEdges" />
    <polyline points="65.813,57.6806 61.813,57.6806" style="fill:none;stroke:black;stroke-width:1" shape-rendering="crispEdges" />
    <text dominant-baseline="hanging" text-anchor="middle" transform="translate(70.8221,367.894)" font-family="Segoe UI" font-size="12" font-weight="400" fill="black">0</text>
    <text dominant-baseline="hanging" text-anchor="middle" transform="translate(135.0418,367.894)" font-family="Segoe UI" font-size="12" font-weight="400" fill="black">2e-09</text>
    <text dominant-baseline="hanging" text-anchor="middle" transform="translate(199.2616,367.894)" font-family="Segoe UI" font-size="12" font-weight="400" fill="black">4e-09</text>
    <text dominant-baseline="hanging" text-anchor="middle" transform="translate(263.4813,367.894)" font-family="Segoe UI" font-size="12" font-weight="400" fill="black">6e-09</text>
    <text dominant-baseline="hanging" text-anchor="middle" transform="translate(327.701,367.894)" font-family="Segoe UI" font-size="12" font-weight="400" fill="black">8e-09</text>
    <text dominant-baseline="hanging" text-anchor="middle" transform="translate(391.9207,367.894)" font-family="Segoe UI" font-size="12" font-weight="400" fill="black">1e-08</text>
    <text dominant-baseline="hanging" text-anchor="middle" transform="translate(456.1404,367.894)" font-family="Segoe UI" font-size="12" font-weight="400" fill="black">1,2e-08</text>
    <text dominant-baseline="hanging" text-anchor="middle" transform="translate(520.3601,367.894)" font-family="Segoe UI" font-size="12" font-weight="400" fill="black">1,4e-08</text>
    <polyline points="70.8221,356.894 70.8221,363.894" style="fill:none;stroke:black;stroke-width:1" shape-rendering="crispEdges" />
    <polyline points="135.0418,356.894 135.0418,363.894" style="fill:none;stroke:black;stroke-width:1" shape-rendering="crispEdges" />
    <polyline points="199.2616,356.894 199.2616,363.894" style="fill:none;stroke:black;stroke-width:1" shape-rendering="crispEdges" />
    <polyline points="263.4813,356.894 263.4813,363.894" style="fill:none;stroke:black;stroke-width:1" shape-rendering="crispEdges" />
    <polyline points="327.701,356.894 327.701,363.894" style="fill:none;stroke:black;stroke-width:1" shape-rendering="crispEdges" />
    <polyline points="391.9207,356.894 391.9207,363.894" style="fill:none;stroke:black;stroke-width:1" shape-rendering="crispEdges" />
    <polyline points="456.1404,356.894 456.1404,363.894" style="fill:none;stroke:black;stroke-width:1" shape-rendering="crispEdges" />
    <polyline points="520.3601,356.894 520.3601,363.894" style="fill:none;stroke:black;stroke-width:1" shape-rendering="crispEdges" />
    <text dominant-baseline="baseline" text-anchor="middle" transform="translate(321.279,388)" font-family="Segoe UI" font-size="12" font-weight="400" fill="black">t (с)</text>
    <text dominant-baseline="middle" text-anchor="end" transform="translate(54.813,355.758)" font-family="Segoe UI" font-size="12" font-weight="400" fill="black">0</text>
    <text dominant-baseline="middle" text-anchor="end" transform="translate(54.813,293.6585)" font-family="Segoe UI" font-size="12" font-weight="400" fill="black">500000</text>
    <text dominant-baseline="middle" text-anchor="end" transform="translate(54.813,231.5591)" font-family="Segoe UI" font-size="12" font-weight="400" fill="black">1e+06</text>
    <text dominant-baseline="middle" text-anchor="end" transform="translate(54.813,169.4596)" font-family="Segoe UI" font-size="12" font-weight="400" fill="black">1,5e+06</text>
    <text dominant-baseline="middle" text-anchor="end" transform="translate(54.813,107.3602)" font-family="Segoe UI" font-size="12" font-weight="400" fill="black">2e+06</text>
    <text dominant-baseline="middle" text-anchor="end" transform="translate(54.813,45.2607)" font-family="Segoe UI" font-size="12" font-weight="400" fill="black">2,5e+06</text>
    <polyline points="65.813,355.758 58.813,355.758" style="fill:none;stroke:black;stroke-width:1" shape-rendering="crispEdges" />
    <polyline points="65.813,293.6585 58.813,293.6585" style="fill:none;stroke:black;stroke-width:1" shape-rendering="crispEdges" />
    <polyline points="65.813,231.5591 58.813,231.5591" style="fill:none;stroke:black;stroke-width:1" shape-rendering="crispEdges" />
    <polyline points="65.813,169.4596 58.813,169.4596" style="fill:none;stroke:black;stroke-width:1" shape-rendering="crispEdges" />
    <polyline points="65.813,107.3602 58.813,107.3602" style="fill:none;stroke:black;stroke-width:1" shape-rendering="crispEdges" />
    <polyline points="65.813,45.2607 58.813,45.2607" style="fill:none;stroke:black;stroke-width:1" shape-rendering="crispEdges" />
    <text dominant-baseline="hanging" text-anchor="middle" transform="translate(12,195.5) rotate(-90)" font-family="Segoe UI" font-size="12" font-weight="400" fill="black">Vy (м/с)</text>
  </g>
  <defs>
    <clipPath id="clipPath2">
      <rect x="65.813" y="34.106" width="510.932" height="322.788" />
    </clipPath>
  </defs>
  <g clip-path="url(#clipPath2)">
    <polyline points="70.8221,353.7294 74.0331,351.7008 77.2441,349.6722 80.4551,347.6437 83.6661,345.6151 86.8771,343.5865 90.088,341.5579 93.299,339.5293 96.51,337.5008 99.721,335.4722 102.932,333.4436 106.143,331.415 109.354,329.3864 112.5649,327.3578 115.7759,325.3293 118.9869,323.3007 122.1979,321.2721 125.4089,319.2435 128.6199,317.2149 131.8309,315.1863 135.0418,313.1578 138.2528,311.1292 141.4638,309.1006 144.6748,307.072 147.8858,305.0434 151.0968,303.0149 154.3078,300.9863 157.5187,298.9577 160.7297,296.9291 163.9407,294.9005 167.1517,292.8719 170.3627,290.8434 173.5737,288.8148 176.7847,286.7862 179.9956,284.7576 183.2066,282.729 186.4176,280.7005 189.6286,278.6719 192.8396,276.6433 196.0506,274.6147 199.2616,272.5861 202.4725,270.5575 205.6835,268.529 208.8945,266.5004 212.1055,264.4718 215.3165,262.4432 218.5275,260.4146 221.7385,258.386 224.9494,256.3575 228.1604,254.3289 231.3714,252.3003 234.5824,250.2717 237.7934,248.2431 241.0044,246.2146 244.2153,244.186 247.4263,242.1574 250.6373,240.1288 253.8483,238.1002 257.0593,236.0716 260.2703,234.0431 263.4813,232.0145 266.6922,229.9859 269.9032,227.9573 273.1142,225.9287 276.3252,223.9002 279.5362,221.8716 282.7472,219.843 285.9582,217.8144 289.1691,215.7858 292.3801,213.7572 295.5911,211.7287 298.8021,209.7001 302.0131,207.6715 305.2241,205.6429 308.4351,203.6143 311.646,201.5857 314.857,199.5572 318.068,197.5286 321.279,195.5 324.49,193.4714 327.701,191.4428 330.912,189.4143 334.1229,187.3857 337.3339,185.3571 340.5449,183.3285 343.7559,181.2999 346.9669,179.2713 350.1779,177.2428 353.3889,175.2142 356.5998,173.1856 359.8108,171.157 363.0218,169.1284 366.2328,167.0998 369.4438,165.0713 372.6548,163.0427 375.8658,161.0141 379.0767,158.9855 382.2877,156.9569 385.4987,154.9284 388.7097,152.8998 391.9207,150.8712 395.1317,148.8426 398.3427,146.814 401.5536,144.7854 404.7646,142.7569 407.9756,140.7283 411.1866,138.6997 414.3976,136.6711 417.6086,134.6425 420.8195,132.614 424.0305,130.5854 427.2415,128.5568 430.4525,126.5282 433.6635,124.4996 436.8745,122.471 440.0855,120.4425 443.2964,118.4139 446.5074,116.3853 449.7184,114.3567 452.9294,112.3281 456.1404,110.2995 459.3514,108.271 462.5624,106.2424 465.7733,104.2138 468.9843,102.1852 472.1953,100.1566 475.4063,98.1281 478.6173,96.0995 481.8283,94.0709 485.0393,92.0423 488.2502,90.0137 491.4612,87.9851 494.6722,85.9566 497.8832,83.928 501.0942,81.8994 504.3052,79.8708 507.5162,77.8422 510.7271,75.8137 513.9381,73.7851 517.1491,71.7565 520.3601,69.7279 523.5711,67.6993 526.7821,65.6707 529.9931,63.6422 533.204,61.6136 536.415,59.585 539.626,57.5564 542.837,55.5278 546.048,53.4992 549.259,51.4707 552.47,49.4421 555.6809,47.4135 558.8919,45.3849 562.1029,43.3563 565.3139,41.3278 568.5249,39.2992 571.7359,37.2706" style="fill:none;stroke:rgb(78,154,6);stroke-width:2;stroke-linejoin:bevel" />
  </g>
  <defs>
    <clipPath id="clipPath3">
      <rect x="0" y="0" width="600" height="400" />
    </clipPath>
  </defs>
  <g clip-path="url(#clipPath3)">
    <text dominant-baseline="hanging" text-anchor="middle" transform="translate(321.279,8)" font-family="Segoe UI" font-size="18" font-weight="700" fill="black">График Vy(t)</text>
    <rect x="65.813" y="34.106" width="510.932" height="322.788" style="fill:none;stroke:black;stroke-width:1" shape-rendering="crispEdges" />
  </g>
</svg>