<?xml version="1.0" encoding="utf-8" standalone="no"?>
<!DOCTYPE svg PUBLIC "-//W3C//DTD SVG 1.1//EN" "http://www.w3.org/Graphics/SVG/1.1/DTD/svg11.dtd">
<svg width="600" height="400" version="1.1" xmlns:xlink="http://www.w3.org/1999/xlink" xmlns="http://www.w3.org/2000/svg">
  <defs>
    <clipPath id="clipPath1">
      <rect x="0" y="0" width="600" height="400" />
    </clipPath>
  </defs>
  <g clip-path="url(#clipPath1)">
    <polyline points="84.4231,356.894 84.4231,360.894" style="fill:none;stroke:black;stroke-width:1" shape-rendering="crispEdges" />
    <polyline points="108.1107,356.894 108.1107,360.894" style="fill:none;stroke:black;stroke-width:1" shape-rendering="crispEdges" />
    <polyline points="131.7984,356.894 131.7984,360.894" style="fill:none;stroke:black;stroke-width:1" shape-rendering="crispEdges" />
    <polyline points="179.1737,356.894 179.1737,360.894" style="fill:none;stroke:black;stroke-width:1" shape-rendering="crispEdges" />
    <polyline points="202.8614,356.894 202.8614,360.894" style="fill:none;stroke:black;stroke-width:1" shape-rendering="crispEdges" />
    <polyline points="226.5491,356.894 226.5491,360.894" style="fill:none;stroke:black;stroke-width:1" shape-rendering="crispEdges" />
    <polyline points="273.9244,356.894 273.9244,360.894" style="fill:none;stroke:black;stroke-width:1" shape-rendering="crispEdges" />
    <polyline points="297.6121,356.894 297.6121,360.894" style="fill:none;stroke:black;stroke-width:1" shape-rendering="crispEdges" />
    <polyline points="321.2998,356.894 321.2998,360.894" style="fill:none;stroke:black;stroke-width:1" shape-rendering="crispEdges" />
    <polyline points="368.6751,356.894 368.6751,360.894" style="fill:none;stroke:black;stroke-width:1" shape-rendering="crispEdges" />
    <polyline points="392.3628,356.894 392.3628,360.894" style="fill:none;stroke:black;stroke-width:1" shape-rendering="crispEdges" />
    <polyline points="416.0504,356.894 416.0504,360.894" style="fill:none;stroke:black;stroke-width:1" shape-rendering="crispEdges" />
    <polyline points="463.4258,356.894 463.4258,360.894" style="fill:none;stroke:black;stroke-width:1" shape-rendering="crispEdges" />
    <polyline points="487.1135,356.894 487.1135,360.894" style="fill:none;stroke:black;stroke-width:1" shape-rendering="crispEdges" />
    <polyline points="510.8011,356.894 510.8011,360.894" style="fill:none;stroke:black;stroke-width:1" shape-rendering="crispEdges" />
    <polyline points="558.1765,356.894 558.1765,360.894" style="fill:none;stroke:black;stroke-width:1" shape-rendering="crispEdges" />
    <polyline points="581.8641,356.894 581.8641,360.894" style="fill:none;stroke:black;stroke-width:1" shape-rendering="crispEdges" />
    <polyline points="55.562,337.9079 51.562,337.9079" style="fill:none;stroke:black;stroke-width:1" shape-rendering="crispEdges" />
    <polyline points="55.562,322.0864 51.562,322.0864" style="fill:none;stroke:black;stroke-width:1" shape-rendering="crispEdges" />
    <polyline points="55.562,306.2649 51.562,306.2649" style="fill:none;stroke:black;stroke-width:1" shape-rendering="crispEdges" />
    <polyline points="55.562,290.4433 51.562,290.4433" style="fill:none;stroke:black;stroke-width:1" shape-rendering="crispEdges" />
    <polyline points="55.562,258.8003 51.562,258.8003" style="fill:none;stroke:black;stroke-width:1" shape-rendering="crispEdges" />
    <polyline points="55.562,242.9788 51.562,242.9788" style="fill:none;stroke:black;stroke-width:1" shape-rendering="crispEdges" />
    <polyline points="55.562,227.1573 51.562,227.1573" style="fill:none;stroke:black;stroke-width:1" shape-rendering="crispEdges" />
    <polyline points="55.562,211.3358 51.562,211.3358" style="fill:none;stroke:black;stroke-width:1" shape-rendering="crispEdges" />
    <polyline points="55.562,179.6927 51.562,179.6927" style="fill:none;stroke:black;stroke-width:1" shape-rendering="crispEdges" />
    <polyline points="55.562,163.8712 51.562,163.8712" style="fill:none;stroke:black;stroke-width:1" shape-rendering="crispEdges" />
    <polyline points="55.562,148.0497 51.562,148.0497" style="fill:none;stroke:black;stroke-width:1" shape-rendering="crispEdges" />
    <polyline points="55.562,132.2282 51.562,132.2282" style="fill:none;stroke:black;stroke-width:1" shape-rendering="crispEdges" />
    <polyline points="55.562,100.5851 51.562,100.5851" style="fill:none;stroke:black;stroke-width:1" shape-rendering="crispEdges" />
    <polyline points="55.562,84.7636 51.562,84.7636" style="fill:none;stroke:black;stroke-width:1" shape-rendering="crispEdges" />
    <polyline points="55.562,68.9421 51.562,68.9421" style="fill:none;stroke:black;stroke-width:1" shape-rendering="crispEdges" />
    <polyline points="55.562,53.1206 51.562,53.1206" style="fill:none;stroke:black;stroke-width:1" shape-rendering="crispEdges" />
    <text dominant-baseline="hanging" text-anchor="middle" transform="translate(60.7354,367.894)" font-family="Segoe UI" font-size="12" font-weight="400" fill="black">0</text>
    <text dominant-baseline="hanging" text-anchor="middle" transform="translate(155.4861,367.894)" font-family="Segoe UI" font-size="12" font-weight="400" fill="black">0,02</text>
    <text dominant-baseline="hanging" text-anchor="middle" transform="translate(250.2368,367.894)" font-family="Segoe UI" font-size="12" font-weight="400" fill="black">0,04</text>
    <text dominant-baseline="hanging" text-anchor="middle" transform="translate(344.9874,367.894)" font-family="Segoe UI" font-size="12" font-weight="400" fill="black">0,06</text>
    <text dominant-baseline="hanging" text-anchor="middle" transform="translate(439.7381,367.894)" font-family="Segoe UI" font-size="12" font-weight="400" fill="black">0,08</text>
    <text dominant-baseline="hanging" text-anchor="middle" transform="translate(534.4888,367.894)" font-family="Segoe UI" font-size="12" font-weight="400" fill="black">0,1</text>
    <polyline points="60.7354,356.894 60.7354,363.894" style="fill:none;stroke:black;stroke-width:1" shape-rendering="crispEdges" />
    <polyline points="155.4861,356.894 155.4861,363.894" style="fill:none;stroke:black;stroke-width:1" shape-rendering="crispEdges" />
    <polyline points="250.2368,356.894 250.2368,363.894" style="fill:none;stroke:black;stroke-width:1" shape-rendering="crispEdges" />
    <polyline points="344.9874,356.894 344.9874,363.894" style="fill:none;stroke:black;stroke-width:1" shape-rendering="crispEdges" />
    <polyline points="439.7381,356.894 439.7381,363.894" style="fill:none;stroke:black;stroke-width:1" shape-rendering="crispEdges" />
    <polyline points="534.4888,356.894 534.4888,363.894" style="fill:none;stroke:black;stroke-width:1" shape-rendering="crispEdges" />
    <text dominant-baseline="baseline" text-anchor="middle" transform="translate(319.4048,388)" font-family="Segoe UI" font-size="12" font-weight="400" fill="black">x (м)</text>
    <text dominant-baseline="middle" text-anchor="end" transform="translate(44.562,353.7294)" font-family="Segoe UI" font-size="12" font-weight="400" fill="black">0</text>
    <text dominant-baseline="middle" text-anchor="end" transform="translate(44.562,274.6218)" font-family="Segoe UI" font-size="12" font-weight="400" fill="black">0,005</text>
    <text dominant-baseline="middle" text-anchor="end" transform="translate(44.562,195.5142)" font-family="Segoe UI" font-size="12" font-weight="400" fill="black">0,01</text>
    <text dominant-baseline="middle" text-anchor="end" transform="translate(44.562,116.4067)" font-family="Segoe UI" font-size="12" font-weight="400" fill="black">0,015</text>
    <text dominant-baseline="middle" text-anchor="end" transform="translate(44.562,37.2991)" font-family="Segoe UI" font-size="12" font-weight="400" fill="black">0,02</text>
    <polyline points="55.562,353.7294 48.562,353.7294" style="fill:none;stroke:black;stroke-width:1" shape-rendering="crispEdges" />
    <polyline points="55.562,274.6218 48.562,274.6218" style="fill:none;stroke:black;stroke-width:1" shape-rendering="crispEdges" />
    <polyline points="55.562,195.5142 48.562,195.5142" style="fill:none;stroke:black;stroke-width:1" shape-rendering="crispEdges" />
    <polyline points="55.562,116.4067 48.562,116.4067" style="fill:none;stroke:black;stroke-width:1" shape-rendering="crispEdges" />
    <polyline points="55.562,37.2991 48.562,37.2991" style="fill:none;stroke:black;stroke-width:1" shape-rendering="crispEdges" />
    <text dominant-baseline="hanging" text-anchor="middle" transform="translate(12,195.5) rotate(-90)" font-family="Segoe UI" font-size="12" font-weight="400" fill="black">y (м)</text>
  </g>
  <defs>
    <clipPath id="clipPath2">
      <rect x="55.562" y="34.106" width="527.6855" height="322.788" />
    </clipPath>
  </defs>
  <g clip-path="url(#clipPath2)">
    <polyline points="60.7354,353.7294 64.0517,353.7036 67.3679,353.6519 70.6842,353.5744 74.0005,353.471 77.3168,353.3418 80.633,353.1867 83.9493,353.0058 87.2656,352.7991 90.5819,352.5665 93.8981,352.3081 97.2144,352.0239 100.5307,351.7138 103.8469,351.3778 107.1632,351.016 110.4795,350.6284 113.7958,350.2149 117.112,349.7756 120.4283,349.3105 123.7446,348.8195 127.0609,348.3026 130.3771,347.76 133.6934,347.1914 137.0097,346.5971 140.326,345.9769 143.6422,345.3308 146.9585,344.6589 150.2748,343.9612 153.5911,343.2376 156.9073,342.4882 160.2236,341.713 163.5399,340.9119 166.8562,340.0849 170.1724,339.2322 173.4887,338.3535 176.805,337.4491 180.1212,336.5188 183.4375,335.5626 186.7538,334.5806 190.0701,333.5728 193.3863,332.5391 196.7026,331.4796 200.0189,330.3943 203.3352,329.2831 206.6514,328.146 209.9677,326.9831 213.284,325.7944 216.6003,324.5798 219.9165,323.3394 223.2328,322.0732 226.5491,320.7811 229.8654,319.4632 233.1816,318.1194 236.4979,316.7498 239.8142,315.3543 243.1305,313.933 246.4467,312.4859 249.763,311.0129 253.0793,309.5141 256.3955,307.9894 259.7118,306.4389 263.0281,304.8625 266.3444,303.2604 269.6606,301.6323 272.9769,299.9784 276.2932,298.2987 279.6095,296.5932 282.9257,294.8618 286.242,293.1045 289.5583,291.3214 292.8746,289.5125 296.1908,287.6777 299.5071,285.8171 302.8234,283.9307 306.1397,282.0184 309.4559,280.0802 312.7722,278.1163 316.0885,276.1265 319.4048,274.1108 322.721,272.0693 326.0373,270.0019 329.3536,267.9088 332.6698,265.7897 335.9861,263.6449 339.3024,261.4741 342.6187,259.2776 345.9349,257.0552 349.2512,254.807 352.5675,252.5329 355.8838,250.233 359.2,247.9072 362.5163,245.5556 365.8326,243.1781 369.1489,240.7749 372.4651,238.3457 375.7814,235.8908 379.0977,233.4099 382.414,230.9033 385.7302,228.3708 389.0465,225.8124 392.3628,223.2283 395.679,220.6182 398.9953,217.9824 402.3116,215.3207 405.6279,212.6331 408.9441,209.9197 412.2604,207.1805 415.5767,204.4154 418.893,201.6245 422.2092,198.8078 425.5255,195.9652 428.8418,193.0967 432.1581,190.2024 435.4743,187.2823 438.7906,184.3363 442.1069,181.3645 445.4232,178.3669 448.7394,175.3434 452.0557,172.2941 455.372,169.2189 458.6883,166.1179 462.0045,162.991 465.3208,159.8383 468.6371,156.6598 471.9533,153.4554 475.2696,150.2251 478.5859,146.9691 481.9022,143.6872 485.2184,140.3794 488.5347,137.0458 491.851,133.6864 495.1673,130.3011 498.4835,126.89 501.7998,123.453 505.1161,119.9902 508.4324,116.5016 511.7486,112.9871 515.0649,109.4468 518.3812,105.8806 521.6975,102.2886 525.0137,98.6707 528.33,95.027 531.6463,91.3575 534.9626,87.6621 538.2788,83.9409 541.5951,80.1938 544.9114,76.4209 548.2276,72.6222 551.5439,68.7976 554.8602,64.9472 558.1765,61.0709 561.4927,57.1688 564.809,53.2408 568.1253,49.287 571.4416,45.3074 574.7578,41.3019 578.0741,37.2706" style="fill:none;stroke:rgb(78,154,6);stroke-width:2;stroke-linejoin:bevel" />
  </g>
  <defs>
    <clipPath id="clipPath3">
      <rect x="0" y="0" width="600" height="400" />
    </clipPath>
  </defs>
  <g clip-path="url(#clipPath3)">
    <text dominant-baseline="hanging" text-anchor="middle" transform="translate(319.4048,8)" font-family="Segoe UI" font-size="18" font-weight="700" fill="black">График y(x)</text>
    <rect x="55.562" y="34.106" width="527.6855" height="322.788" style="fill:none;stroke:black;stroke-width:1" shape-rendering="crispEdges" />
  </g>
</svg>